<svg id="Layer_1" data-name="Layer 1" xmlns="http://www.w3.org/2000/svg" viewBox="0 0 292.11 292.11"><defs><style>.cls-1{fill:#1d1d1b;}</style></defs><path class="cls-1" d="M274.06,128A145.94,145.94,0,1,1,263,72.1,146.31,146.31,0,0,1,274.06,128Zm-8.51,0a137.29,137.29,0,1,0-10.45,52.64A137.72,137.72,0,0,0,265.55,128Z" transform="translate(18.06 18.06)"/><path class="cls-1" d="M99.91,19.8a8.79,8.79,0,1,1-2.58-6.22A8.79,8.79,0,0,1,99.91,19.8Zm-2.84,0A5.94,5.94,0,1,0,95.33,24,6,6,0,0,0,97.07,19.8Z" transform="translate(18.06 18.06)"/><path class="cls-1" d="M249.09,100.13a8.79,8.79,0,1,1-2.58-6.22A8.8,8.8,0,0,1,249.09,100.13Zm-2.84,0a5.92,5.92,0,0,0-1.74-4.21,5.9,5.9,0,0,0-8.41,0,6,6,0,0,0,0,8.38,5.93,5.93,0,0,0,10.15-4.19Z" transform="translate(18.06 18.06)"/><path class="cls-1" d="M158.11,236.2a8.81,8.81,0,1,1-2.58-6.22A8.85,8.85,0,0,1,158.11,236.2Zm-2.84,0a5.94,5.94,0,0,0-6-6A5.92,5.92,0,0,0,145.1,232a6,6,0,1,0,10.17,4.22Z" transform="translate(18.06 18.06)"/><path class="cls-1" d="M85.17,190.3a19.48,19.48,0,1,1-5.71-13.76A19.43,19.43,0,0,1,85.17,190.3Zm-2.87,0A16.59,16.59,0,1,0,77.45,202,16.65,16.65,0,0,0,82.3,190.3Z" transform="translate(18.06 18.06)"/><path class="cls-1" d="M172,109.15A19.45,19.45,0,0,1,138.72,123a19.68,19.68,0,0,1,13.87-33.55A20,20,0,0,1,160.11,91,19.68,19.68,0,0,1,172,109.15Zm-2.83,0a16.84,16.84,0,0,0-1.3-6.35,16.55,16.55,0,0,0-3.65-5.33,16.72,16.72,0,0,0-11.67-4.71,16.34,16.34,0,1,0,15.32,22.73A16.79,16.79,0,0,0,169.21,109.15Z" transform="translate(18.06 18.06)"/><path class="cls-1" d="M99.91,91.11A34.28,34.28,0,1,1,97.3,78,34.35,34.35,0,0,1,99.91,91.11Zm-2.84,0a31.34,31.34,0,1,0-9.18,22.19A31.42,31.42,0,0,0,97.07,91.11Z" transform="translate(18.06 18.06)"/></svg>