<svg id="Layer_1" data-name="Layer 1" xmlns="http://www.w3.org/2000/svg" viewBox="0 0 413.53 292.11"><defs><style>.cls-1,.cls-3,.cls-5{fill:#1d1d1b;}.cls-2,.cls-4,.cls-6,.cls-7,.cls-8{fill:none;}.cls-2,.cls-3,.cls-4,.cls-5,.cls-6,.cls-7,.cls-8{stroke:#1d1d1b;stroke-miterlimit:10;}.cls-2{stroke-width:5.67px;}.cls-4,.cls-5{stroke-width:4px;}.cls-6{stroke-width:21px;}.cls-7{stroke-width:6px;}.cls-8{stroke-width:14px;}</style></defs><path class="cls-1" d="M274,129.09a145.94,145.94,0,1,1-11.11-55.9A146.31,146.31,0,0,1,274,129.09Zm-8.51,0a137.34,137.34,0,1,0-10.45,52.64A137.53,137.53,0,0,0,265.5,129.09Z" transform="translate(78.77 16.97)"/><path class="cls-2" d="M130.59,119.22,267.8,152.69,269,124.48c47.73,32.86,69.43,63.63,61.21,84.66-14.07,36-117,29.92-227.92-13.45S-88.39,87-74.32,51c8-20.43,44.92-28.23,99.79-21.08L8.17,53.17Z" transform="translate(78.77 16.97)"/><path class="cls-3" d="M95.22-9.7c-2.65,9.37,45.4,30.1,63,37,34,13.33,80,24.09,83.84,15.41C244.94,36,222,19.49,209.37,11.79,160.32-18.26,98.09-19.81,95.22-9.7Z" transform="translate(78.77 16.97)"/><path class="cls-4" d="M-10.23,161.05C29,186,50.16,199.69,91.62,216a673.18,673.18,0,0,0,112.1,33" transform="translate(78.77 16.97)"/><path class="cls-5" d="M8.17,205c46.15,31.47,94.54,53.73,158.39,60.6,0,0-40.87,14.18-84.17-2.2S8.17,205,8.17,205Z" transform="translate(78.77 16.97)"/><path class="cls-6" d="M-11.26,102c70.08,47.41,158.24,80.33,260,101.35" transform="translate(78.77 16.97)"/><path class="cls-6" d="M8.17,53.17c76.37,50.89,163.19,83.61,260.3,97.43" transform="translate(78.77 16.97)"/><path class="cls-7" d="M31.55,25.11C95.83,71.35,176.69,99.29,269,114.59" transform="translate(78.77 16.97)"/><path class="cls-8" d="M53.21,8.56C113,48.88,182.9,74.45,263.2,86.36" transform="translate(78.77 16.97)"/></svg>