<svg id="Layer_1" data-name="Layer 1" xmlns="http://www.w3.org/2000/svg" viewBox="0 0 343.4 375.57"><defs><style>.cls-1,.cls-3{fill:none;stroke:#1d1d1b;stroke-miterlimit:10;}.cls-1{stroke-width:13px;}.cls-2{fill:#1d1d1b;}.cls-3{stroke-width:11px;}</style></defs><path class="cls-1" d="M293.7,128A149.3,149.3,0,1,1,144.42-21.28,149.28,149.28,0,0,1,293.7,128Z" transform="translate(43.2 59.78)"/><path class="cls-2" d="M144.58,7.58,231,6.39s-38.35-27.67-86.6-27.67S58.15,6.15,58.15,6.15Z" transform="translate(43.2 59.78)"/><path class="cls-2" d="M24.57,39H266.14L288,86.85h-90.5S195,77.16,187,77.1s-10.29,9.75-10.29,9.75H.88Z" transform="translate(43.2 59.78)"/><polygon class="cls-2" points="38.33 187.78 336.9 187.78 336.71 195.43 38.33 195.43 38.33 187.78"/><polygon class="cls-2" points="107.32 313.66 267.91 313.66 189.13 337.06 107.32 313.66"/><path class="cls-2" d="M-1.26,160.76H290.09l-8.7,26.69H106.29s-4.84-17.82-24.66-17.71-24.88,17.71-24.88,17.71H7.44Z" transform="translate(43.2 59.78)"/><path class="cls-2" d="M13.86,200.43H57.41S65.23,216.08,82,216s24.17-15.55,24.17-15.55H275L262.14,219.8H26.69Z" transform="translate(43.2 59.78)"/><circle class="cls-2" cx="88.72" cy="166.01" r="9.69"/><path class="cls-3" d="M144.58-54.28a182.28,182.28,0,0,0,0,364.56" transform="translate(43.2 59.78)"/></svg>