<svg id="Layer_1" data-name="Layer 1" xmlns="http://www.w3.org/2000/svg" viewBox="0 0 252.58 252.58"><defs><style>.cls-1{fill:none;stroke:#1d1d1b;stroke-miterlimit:10;stroke-width:13px;}.cls-2{fill:#1d1d1b;}</style></defs><path class="cls-1" d="M247.79,128A119.8,119.8,0,1,1,128,8.21,119.79,119.79,0,0,1,247.79,128Z" transform="translate(-1.71 -1.71)"/><path class="cls-2" d="M128.14,31.37l69.35-1S166.72,8.21,128,8.21s-69.22,22-69.22,22Z" transform="translate(-1.71 -1.71)"/><path class="cls-2" d="M31.83,56.57H225.68L243.18,95H170.56s-1.95-7.78-8.35-7.82S154,95,154,95H12.82Z" transform="translate(-1.71 -1.71)"/><polygon class="cls-2" points="6.5 126.29 246.09 126.29 245.93 132.43 6.5 132.43 6.5 126.29"/><polygon class="cls-2" points="61.86 227.3 190.72 227.3 127.51 246.07 61.86 227.3"/><path class="cls-2" d="M11.11,154.29H244.9l-7,21.41H97.41s-3.89-14.29-19.79-14.2-20,14.2-20,14.2H18.09Z" transform="translate(-1.71 -1.71)"/><path class="cls-2" d="M23.24,186.12H58.18s6.28,12.56,19.7,12.48,19.4-12.48,19.4-12.48H232.77l-10.3,15.55H33.53Z" transform="translate(-1.71 -1.71)"/><circle class="cls-2" cx="46.93" cy="108.82" r="7.77"/></svg>