<svg id="Layer_1" data-name="Layer 1" xmlns="http://www.w3.org/2000/svg" viewBox="0 0 293.3 293.3"><defs><style>.cls-1{fill:#1d1d1b;}</style></defs><path class="cls-1" d="M274.65,128A146.49,146.49,0,1,1,263.5,71.87,146.89,146.89,0,0,1,274.65,128Zm-4.25,0a142.25,142.25,0,1,0-10.83,54.5A142.51,142.51,0,0,0,270.4,128Z" transform="translate(18.65 18.65)"/><path class="cls-1" d="M262.62,128a134.4,134.4,0,1,1-10.23-51.52A134.7,134.7,0,0,1,262.62,128Zm-8.5,0a126,126,0,1,0-9.59,48.27A126.22,126.22,0,0,0,254.12,128Z" transform="translate(18.65 18.65)"/><circle cx="146.65" cy="146.65" r="117.64"/><path class="cls-1" d="M247.06,128A118.9,118.9,0,1,1,238,82.43,119.37,119.37,0,0,1,247.06,128ZM240,128a111.87,111.87,0,1,0-8.51,42.85A112,112,0,0,0,240,128Z" transform="translate(18.65 18.65)"/></svg>